<svg xmlns="http://www.w3.org/2000/svg" xmlns:xlink="http://www.w3.org/1999/xlink" width="40" zoomAndPan="magnify" viewBox="0 0 30 30.000001" height="40" preserveAspectRatio="xMidYMid meet" version="1.0"><defs><g/><clipPath id="id1"><path d="M 0.484375 0 L 29.515625 0 L 29.515625 29.03125 L 0.484375 29.03125 Z M 0.484375 0 " clip-rule="nonzero"/></clipPath></defs><g clip-path="url(#id1)"><path fill="#ffffff" d="M 0.484375 0 L 29.515625 0 L 29.515625 36.289062 L 0.484375 36.289062 Z M 0.484375 0 " fill-opacity="1" fill-rule="nonzero"/><path fill="#000000" d="M 0.484375 0 L 29.515625 0 L 29.515625 29.03125 L 0.484375 29.03125 Z M 0.484375 0 " fill-opacity="1" fill-rule="nonzero"/><path fill="#ffffff" d="M 0.484375 0 L 29.515625 0 L 29.515625 29.03125 L 0.484375 29.03125 Z M 0.484375 0 " fill-opacity="1" fill-rule="nonzero"/><path fill="#000000" d="M 0.484375 0 L 29.515625 0 L 29.515625 29.03125 L 0.484375 29.03125 Z M 0.484375 0 " fill-opacity="1" fill-rule="nonzero"/></g><g fill="#ffffff" fill-opacity="1"><g transform="translate(0.255858, 18.898918)"><g><path d="M 10.871094 0 C 12.179688 0 13.417969 -1.203125 13.417969 -2.527344 L 13.417969 -10.007812 C 13.417969 -11.316406 12.144531 -12.554688 10.851562 -12.554688 L 1.34375 -12.554688 C 1.074219 -12.554688 0.878906 -12.339844 0.878906 -12.070312 L 0.878906 -0.484375 C 0.878906 -0.214844 1.074219 0 1.34375 0 Z M 10.851562 -12.105469 C 11.925781 -12.105469 12.949219 -11.085938 12.949219 -9.992188 L 12.949219 -2.527344 C 12.949219 -1.453125 11.945312 -0.464844 10.871094 -0.464844 C 7.640625 -0.464844 4.554688 -0.449219 1.328125 -0.449219 C 1.328125 -13.578125 1.328125 1.023438 1.328125 -12.105469 Z M 10.851562 -12.105469 "/></g></g></g><g fill="#ffffff" fill-opacity="1"><g transform="translate(15.392718, 18.898918)"><g><path d="M 10.871094 0 C 12.179688 0 13.398438 -1.203125 13.398438 -2.511719 L 13.398438 -10.007812 C 13.398438 -11.316406 12.144531 -12.554688 10.851562 -12.554688 L 3.425781 -12.554688 C 2.132812 -12.554688 0.878906 -11.316406 0.878906 -10.007812 L 0.878906 -2.511719 C 0.878906 -1.203125 2.097656 0 3.40625 0 Z M 10.832031 -12.105469 C 11.925781 -12.105469 12.949219 -11.066406 12.949219 -9.992188 L 12.949219 -2.511719 C 12.949219 -1.433594 11.925781 -0.449219 10.851562 -0.449219 L 3.425781 -0.449219 C 2.351562 -0.449219 1.328125 -1.433594 1.328125 -2.511719 L 1.328125 -9.992188 C 1.328125 -11.066406 2.351562 -12.105469 3.445312 -12.105469 Z M 10.832031 -12.105469 "/></g></g></g><g fill="#ffffff" fill-opacity="1"><g transform="translate(4.279504, 22.369274)"><g><path d="M 1.078125 -0.609375 C 1.078125 -0.695312 1.0625 -0.777344 1.027344 -0.851562 C 0.996094 -0.925781 0.953125 -0.992188 0.894531 -1.042969 C 0.839844 -1.097656 0.773438 -1.140625 0.699219 -1.167969 C 0.621094 -1.199219 0.539062 -1.214844 0.453125 -1.214844 L 0.132812 -1.214844 L 0.132812 0 L 0.453125 0 C 0.539062 0 0.621094 -0.015625 0.699219 -0.0429688 C 0.773438 -0.0742188 0.839844 -0.117188 0.894531 -0.171875 C 0.953125 -0.226562 0.996094 -0.289062 1.027344 -0.363281 C 1.0625 -0.4375 1.078125 -0.519531 1.078125 -0.609375 Z M 0.957031 -0.609375 C 0.957031 -0.46875 0.90625 -0.351562 0.808594 -0.261719 C 0.714844 -0.171875 0.59375 -0.125 0.457031 -0.125 L 0.257812 -0.125 L 0.257812 -1.089844 L 0.457031 -1.089844 C 0.59375 -1.089844 0.714844 -1.042969 0.808594 -0.957031 C 0.90625 -0.863281 0.957031 -0.746094 0.957031 -0.609375 Z M 0.957031 -0.609375 "/></g></g></g><g fill="#ffffff" fill-opacity="1"><g transform="translate(5.956765, 22.369274)"><g><path d="M 0.332031 -0.445312 L 0.550781 -1.007812 L 0.773438 -0.445312 Z M 1.085938 0 L 0.550781 -1.300781 L 0.0195312 0 L 0.152344 0 L 0.285156 -0.332031 L 0.820312 -0.332031 L 0.949219 0 Z M 1.085938 0 "/></g></g></g><g fill="#ffffff" fill-opacity="1"><g transform="translate(7.578612, 22.369274)"><g><path d="M 0.570312 0.0742188 L 1.121094 -1.214844 L 0.984375 -1.214844 L 0.570312 -0.234375 L 0.152344 -1.214844 L 0.0195312 -1.214844 Z M 0.570312 0.0742188 "/></g></g></g><g fill="#ffffff" fill-opacity="1"><g transform="translate(9.23621, 22.369274)"><g><path d="M 0.257812 0 L 0.257812 -1.214844 L 0.132812 -1.214844 L 0.132812 0 Z M 0.257812 0 "/></g></g></g><g fill="#ffffff" fill-opacity="1"><g transform="translate(10.148418, 22.369274)"><g><path d="M 1.078125 -0.609375 C 1.078125 -0.695312 1.0625 -0.777344 1.027344 -0.851562 C 0.996094 -0.925781 0.953125 -0.992188 0.894531 -1.042969 C 0.839844 -1.097656 0.773438 -1.140625 0.699219 -1.167969 C 0.621094 -1.199219 0.539062 -1.214844 0.453125 -1.214844 L 0.132812 -1.214844 L 0.132812 0 L 0.453125 0 C 0.539062 0 0.621094 -0.015625 0.699219 -0.0429688 C 0.773438 -0.0742188 0.839844 -0.117188 0.894531 -0.171875 C 0.953125 -0.226562 0.996094 -0.289062 1.027344 -0.363281 C 1.0625 -0.4375 1.078125 -0.519531 1.078125 -0.609375 Z M 0.957031 -0.609375 C 0.957031 -0.46875 0.90625 -0.351562 0.808594 -0.261719 C 0.714844 -0.171875 0.59375 -0.125 0.457031 -0.125 L 0.257812 -0.125 L 0.257812 -1.089844 L 0.457031 -1.089844 C 0.59375 -1.089844 0.714844 -1.042969 0.808594 -0.957031 C 0.90625 -0.863281 0.957031 -0.746094 0.957031 -0.609375 Z M 0.957031 -0.609375 "/></g></g></g><g fill="#ffffff" fill-opacity="1"><g transform="translate(11.82568, 22.369274)"><g/></g></g><g fill="#ffffff" fill-opacity="1"><g transform="translate(12.827263, 22.369274)"><g><path d="M 1.207031 -0.613281 C 1.207031 -0.472656 1.15625 -0.355469 1.058594 -0.257812 C 0.960938 -0.160156 0.84375 -0.109375 0.703125 -0.109375 C 0.566406 -0.109375 0.449219 -0.160156 0.351562 -0.257812 C 0.253906 -0.355469 0.207031 -0.472656 0.207031 -0.613281 C 0.207031 -0.746094 0.253906 -0.867188 0.351562 -0.964844 C 0.449219 -1.0625 0.566406 -1.109375 0.703125 -1.109375 C 0.84375 -1.109375 0.960938 -1.0625 1.058594 -0.964844 C 1.15625 -0.867188 1.207031 -0.746094 1.207031 -0.613281 Z M 1.332031 -0.613281 C 1.332031 -0.699219 1.3125 -0.777344 1.28125 -0.855469 C 1.25 -0.929688 1.203125 -0.996094 1.148438 -1.054688 C 1.089844 -1.109375 1.023438 -1.152344 0.949219 -1.1875 C 0.871094 -1.21875 0.789062 -1.234375 0.703125 -1.234375 C 0.617188 -1.234375 0.535156 -1.21875 0.460938 -1.1875 C 0.386719 -1.152344 0.320312 -1.109375 0.261719 -1.054688 C 0.207031 -0.996094 0.160156 -0.929688 0.128906 -0.855469 C 0.0976562 -0.777344 0.0820312 -0.699219 0.0820312 -0.613281 C 0.0820312 -0.527344 0.0976562 -0.445312 0.128906 -0.367188 C 0.160156 -0.292969 0.207031 -0.226562 0.261719 -0.167969 C 0.320312 -0.109375 0.386719 -0.0664062 0.460938 -0.0351562 C 0.535156 0 0.617188 0.015625 0.703125 0.015625 C 0.789062 0.015625 0.871094 0 0.949219 -0.0351562 C 1.023438 -0.0664062 1.089844 -0.109375 1.148438 -0.167969 C 1.203125 -0.226562 1.25 -0.292969 1.28125 -0.367188 C 1.3125 -0.445312 1.332031 -0.527344 1.332031 -0.613281 Z M 1.332031 -0.613281 "/></g></g></g><g fill="#ffffff" fill-opacity="1"><g transform="translate(14.756563, 22.369274)"><g><path d="M 0.257812 -0.125 L 0.257812 -1.214844 L 0.132812 -1.214844 L 0.132812 0 L 0.695312 0 L 0.695312 -0.125 Z M 0.257812 -0.125 "/></g></g></g><g fill="#ffffff" fill-opacity="1"><g transform="translate(16.004823, 22.369274)"><g><path d="M 1.015625 -0.402344 L 1.015625 -1.214844 L 0.890625 -1.214844 L 0.890625 -0.382812 C 0.890625 -0.335938 0.878906 -0.292969 0.863281 -0.257812 C 0.808594 -0.160156 0.710938 -0.109375 0.5625 -0.109375 C 0.464844 -0.109375 0.386719 -0.128906 0.332031 -0.171875 C 0.265625 -0.222656 0.234375 -0.292969 0.234375 -0.382812 L 0.234375 -1.214844 L 0.105469 -1.214844 L 0.105469 -0.402344 C 0.105469 -0.269531 0.148438 -0.167969 0.234375 -0.0898438 C 0.316406 -0.0195312 0.425781 0.015625 0.5625 0.015625 C 0.695312 0.015625 0.804688 -0.0195312 0.886719 -0.0898438 C 0.972656 -0.167969 1.015625 -0.269531 1.015625 -0.402344 Z M 1.015625 -0.402344 "/></g></g></g><g fill="#ffffff" fill-opacity="1"><g transform="translate(17.644546, 22.369274)"><g><path d="M 1.101562 0.0976562 L 1.382812 -1.214844 L 1.253906 -1.214844 L 1.066406 -0.332031 L 0.703125 -1.289062 L 0.335938 -0.332031 L 0.148438 -1.214844 L 0.0195312 -1.214844 L 0.300781 0.0976562 L 0.703125 -0.960938 Z M 1.101562 0.0976562 "/></g></g></g><g fill="#ffffff" fill-opacity="1"><g transform="translate(19.563121, 22.369274)"><g><path d="M 0.332031 -0.445312 L 0.550781 -1.007812 L 0.773438 -0.445312 Z M 1.085938 0 L 0.550781 -1.300781 L 0.0195312 0 L 0.152344 0 L 0.285156 -0.332031 L 0.820312 -0.332031 L 0.949219 0 Z M 1.085938 0 "/></g></g></g><g fill="#ffffff" fill-opacity="1"><g transform="translate(21.184968, 22.369274)"><g><path d="M 0.855469 -1.101562 L 0.855469 -1.214844 L 0.132812 -1.214844 L 0.132812 0 L 0.257812 0 L 0.257812 -0.550781 L 0.839844 -0.550781 L 0.839844 -0.667969 L 0.257812 -0.667969 L 0.257812 -1.101562 Z M 0.855469 -1.101562 "/></g></g></g><g fill="#ffffff" fill-opacity="1"><g transform="translate(22.595891, 22.369274)"><g><path d="M 0.855469 0 L 0.855469 -0.117188 L 0.257812 -0.117188 L 0.257812 -0.550781 L 0.839844 -0.550781 L 0.839844 -0.667969 L 0.257812 -0.667969 L 0.257812 -1.101562 L 0.855469 -1.101562 L 0.855469 -1.214844 L 0.132812 -1.214844 L 0.132812 0 Z M 0.855469 0 "/></g></g></g><g fill="#ffffff" fill-opacity="1"><g transform="translate(24.105125, 22.369274)"><g><path d="M 1.253906 0 L 1.382812 0 L 1.101562 -1.296875 L 0.703125 -0.253906 L 0.300781 -1.296875 L 0.0195312 0 L 0.148438 0 L 0.335938 -0.867188 L 0.703125 0.0703125 L 1.066406 -0.867188 Z M 1.253906 0 "/></g></g></g><g fill="#ffffff" fill-opacity="1"><g transform="translate(26.023699, 22.369274)"><g><path d="M 0.257812 0 L 0.257812 -1.214844 L 0.132812 -1.214844 L 0.132812 0 Z M 0.257812 0 "/></g></g></g></svg>